# xmcd
#
# Track frame offsets: 
#        150
#        13679
#        24218
#        38358
#        48425
#        58819
#        73266
#        86343
#        104470
#        124427
#        138792
#        149071
#        165598
#        181100
#        192965
#        210382
#        227817
#        240036
#        253288
#        266702
#        280066
#        289573
#        302080
#        311454
#
# Disc length: 4331 seconds
#
# Revision: 0
# Processed by: cddbd v1.5.2PL0 Copyright (c) Steve Scherf et al.
# Submitted via: ExactAudioCopy v0.95b4
#
DISCID=5010e918
DTITLE=Jukka Kuoppam‰ki - Aarteet - 24 Suosituinta S‰velm‰‰
DYEAR=1900
DGENRE=
TTITLE0=Sininen Ja Valkoinen
TTITLE1=Oi Rakkahin
TTITLE2=Nuoruuden S‰vel
TTITLE3=Muistot Mukaan Vien
TTITLE4=Kortti Tuo - Kortti Vie
TTITLE5=Valtatie
TTITLE6=Pieni Tyttˆni Mun
TTITLE7=Min‰ L‰hdin - Sin‰ J‰it
TTITLE8=Harmaat Miehet
TTITLE9=Uinu Poikani Vain
TTITLE10=Marraskuun Aamu
TTITLE11=N‰in S‰vel Soi
TTITLE12=Pieni Mies
TTITLE13=Vain El‰m‰‰
TTITLE14=Voi Kaikki Alkaa Uudestaan
TTITLE15=Pajon Sanomatta J‰‰
TTITLE16=Kiskot Viev‰t Etel‰‰n
TTITLE17=Nouseva Aurinko
TTITLE18=Kultaa Tai Kunniaa
TTITLE19=Ei Kauniimpaa
TTITLE20=Casanova
TTITLE21=Katson Veden Pintaa
TTITLE22=En Toisten Sua M‰ Katsovan Sois
TTITLE23=Kyyhkyset
EXTD=
EXTT0=
EXTT1=
EXTT2=
EXTT3=
EXTT4=
EXTT5=
EXTT6=
EXTT7=
EXTT8=
EXTT9=
EXTT10=
EXTT11=
EXTT12=
EXTT13=
EXTT14=
EXTT15=
EXTT16=
EXTT17=
EXTT18=
EXTT19=
EXTT20=
EXTT21=
EXTT22=
EXTT23=
PLAYORDER=
